                 Battle in Heaven 2005 DVDRip Xvid fasamoo LKRG


RIPPER                           : fasamoo
Format                           : AVI
Format/Info                      : Audio Video Interleave
File size                        : 698 MiB
Duration                         : 1h 34mn
Overall bit rate                 : 1 035 Kbps
Writing application              : VirtualDubMod 1.5.4.1 (build 2178/release)
Writing library                  : VirtualDubMod build 2178/release
Language                         : Spanish
Subtitles                        : English(*.srt)
                                   English ; Indonesian ; Thai ; Chinese(*.idx,*.sub)
Genre                            : Drama | Romance

Video
ID                               : 0
Format                           : MPEG-4 Visual
Format profile                   : Advanced Simple@L5
Format settings, BVOP            : Yes
Format settings, QPel            : No
Format settings, GMC             : No warppoints
Format settings, Matrix          : Custom
Codec ID                         : XVID
Codec ID/Hint                    : XviD
Duration                         : 1h 34mn
Bit rate                         : 908 Kbps
Width                            : 560 pixels
Height                           : 320 pixels
Display aspect ratio             : 16:9
Frame rate                       : 29.970 fps
Color space                      : YUV
Chroma subsampling               : 4:2:0
Bit depth                        : 8 bits
Scan type                        : Progressive
Bits/(Pixel*Frame)               : 0.169
Stream size                      : 612 MiB (88%)
Writing library                  : XviD 1.2.1 (UTC 2008-12-04)

Audio
ID                               : 1
Format                           : MPEG Audio
Format version                   : Version 1
Format profile                   : Layer 3
Mode                             : Joint stereo
Mode extension                   : MS Stereo
Codec ID                         : 55
Codec ID/Hint                    : MP3
Duration                         : 1h 34mn
Bit rate mode                    : Variable
Bit rate                         : 113 Kbps
Nominal bit rate                 : 128 Kbps
Channel(s)                       : 2 channels
Sampling rate                    : 48.0 KHz
Stream size                      : 76.5 MiB (11%)
Alignment                        : Aligned on interleaves
Interleave, duration             : 24 ms (0.72 video frame)
Interleave, preload duration     : 162 ms
Writing library                  : LAME3.98r
Encoding settings                : -m j -V 4 -q 2 -lowpass 17 --abr 128


                                 PLOT

A working-class man named Marcos and his wife kidnap a baby for ransom money, but it goes tragically wrong when the infant dies. In another world is Ana, the daughter of the general for whom he drives, who does sexual acts to any man for pleasure. Marcos confesses his guilt to her in his troubled search for relief, and then finds himself on his knees amid the multitude of believers moving slowly toward the Basilica in honor of the Lady of Guadalupe. 

  







                                 IMBD
                     
                    http://www.imdb.com/title/tt0387055/
 
http://leetleech.org/images/49120997768176051771.png 
http://leetleech.org/images/83392378741472401806.png 
http://leetleech.org/images/04683757753619114063.png 
http://leetleech.org/images/24832681196828793255.png 
http://leetleech.org/images/81613780639513506186.png 
http://leetleech.org/images/06259913958819717609.png 
http://leetleech.org/images/54615674784840500756.png